<svg xmlns="http://www.w3.org/2000/svg" width="74" height="74" viewBox="0 0 74 74">
  <path id="g_translate" d="M848,1074.81l-3.7-11.1H818.4a7.416,7.416,0,0,1-7.4-7.4v-48.1a7.416,7.416,0,0,1,7.4-7.4h22.2l3.238,11.1H877.6a7.123,7.123,0,0,1,7.4,7.4v48.1a7.308,7.308,0,0,1-2.081,5.23,7.075,7.075,0,0,1-5.319,2.17Zm-17.945-27.38a14.2,14.2,0,0,0,10.5-4.12,14.437,14.437,0,0,0,4.116-10.68c0-.49-.015-.94-.046-1.34a6.347,6.347,0,0,0-.231-1.25H829.778v5.73h8.232a7.09,7.09,0,0,1-2.821,4.03,8.711,8.711,0,0,1-5.041,1.43,8.445,8.445,0,0,1-6.2-2.59,9.153,9.153,0,0,1,0-12.76,8.445,8.445,0,0,1,6.2-2.59,8.291,8.291,0,0,1,3.145.6,8.082,8.082,0,0,1,2.682,1.8l4.532-4.35a13.37,13.37,0,0,0-4.671-3.14,15.193,15.193,0,0,0-5.781-1.11,14.427,14.427,0,0,0-10.591,4.39,15.421,15.421,0,0,0,0,21.56A14.466,14.466,0,0,0,830.055,1047.43Zm24.79,1.85,2.035-1.94q-1.294-1.575-2.359-3.06c-.709-.98-1.4-2.03-2.081-3.14Zm4.625-4.72a27.922,27.922,0,0,0,3.931-5.83,30.773,30.773,0,0,0,1.8-4.34H850.5l1.11,3.88h3.7c.493.93,1.079,1.93,1.757,3.01A30.407,30.407,0,0,0,859.47,1044.56Zm-7.77,26.55h25.9a3.575,3.575,0,0,0,2.683-1.06,3.675,3.675,0,0,0,1.017-2.64v-48.1a3.5,3.5,0,0,0-3.7-3.7H844.948l4.347,14.98H856.6v-3.88H860.4v3.88H873.9v3.8h-4.717a29.6,29.6,0,0,1-2.775,6.84,36.112,36.112,0,0,1-4.348,6.2l10.082,9.9-2.682,2.68-9.99-9.99-3.33,3.42,2.96,10.27Z" transform="translate(-811 -1000.81)" fill="#1c1c1c"/>
</svg>
