<svg xmlns="http://www.w3.org/2000/svg" width="101" height="101" viewBox="0 0 101 101">
  <path id="network_node" d="M127.675,1322.31a17.675,17.675,0,1,1,4.419-34.78,18.484,18.484,0,0,1,4.04,1.58l19.316-19.32V1255.9a17.392,17.392,0,0,1-9.09-6.25,17.675,17.675,0,1,1,28.28,0,17.392,17.392,0,0,1-9.09,6.25v13.89l19.443,19.32a18.82,18.82,0,0,1,3.976-1.58,16.435,16.435,0,0,1,4.356-.57,17.709,17.709,0,1,1-17.107,13.26,18.538,18.538,0,0,1,1.578-4.04l-17.3-17.3-17.3,17.3a18.538,18.538,0,0,1,1.578,4.04,17.669,17.669,0,0,1-17.107,22.09Zm65.65-10.1a7.544,7.544,0,1,0-5.366-2.21A7.318,7.318,0,0,0,193.325,1312.21ZM160.5,1246.56s3.893-.74,5.366-2.21a7.575,7.575,0,1,0-10.732,0C156.607,1245.82,160.5,1246.56,160.5,1246.56Zm-32.825,65.65a7.544,7.544,0,1,0-5.366-2.21A7.318,7.318,0,0,0,127.675,1312.21Z" transform="translate(-110 -1221.31)" fill="#1c1c1c"/>
</svg>
