<svg xmlns="http://www.w3.org/2000/svg" width="82" height="82" viewBox="0 0 82 82">
  <path id="sms" d="M827.6,1267.71a4.029,4.029,0,1,0-2.921-1.18A3.952,3.952,0,0,0,827.6,1267.71Zm16.4,0a4.029,4.029,0,1,0-2.921-1.18A3.952,3.952,0,0,0,844,1267.71Zm16.4,0a4.029,4.029,0,1,0-2.921-1.18A3.951,3.951,0,0,0,860.4,1267.71Zm-57.4,45.1v-73.8a8.227,8.227,0,0,1,8.2-8.2h65.6a8.227,8.227,0,0,1,8.2,8.2v49.2a8.227,8.227,0,0,1-8.2,8.2H819.4Zm12.915-24.6H876.8v-49.2H811.2v53.81Z" transform="translate(-803 -1230.81)" fill="#1c1c1c"/>
</svg>
