<svg xmlns="http://www.w3.org/2000/svg" width="65" height="56.13" viewBox="0 0 65 56.13">
  <path id="smart_toy" d="M88.864,1817.72a8.865,8.865,0,1,1,0-17.73v-5.91a5.934,5.934,0,0,1,5.909-5.91h8.863a8.864,8.864,0,1,1,17.728,0h8.863a5.932,5.932,0,0,1,5.909,5.91v5.91a8.865,8.865,0,1,1,0,17.73v11.82a5.915,5.915,0,0,1-5.909,5.9H94.773a5.917,5.917,0,0,1-5.909-5.9Zm14.772-5.91a4.409,4.409,0,1,0-3.139-1.29A4.281,4.281,0,0,0,103.636,1811.81Zm17.728,0a4.408,4.408,0,1,0-3.14-1.29A4.278,4.278,0,0,0,121.364,1811.81Zm-20.682,11.82h23.636v-5.91H100.682Zm-5.909,5.91h35.454v-35.46H94.773Z" transform="translate(-80 -1779.31)" fill="#1c1b1f"/>
</svg>
